<svg viewBox="0 0 330 200" xmlns="http://www.w3.org/2000/svg"><g><g><g><g><g><line x1="51.5625" y1="177" x2="46.5625" y2="177" style="visibility: inherit;" fill="rgb(0, 0, 0)" stroke="rgb(204, 204, 204)" stroke-width="1px"></line><line x1="51.5625" y1="159.3" x2="46.5625" y2="159.3" style="visibility: inherit;" fill="rgb(0, 0, 0)" stroke="rgb(204, 204, 204)" stroke-width="1px"></line><line x1="51.5625" y1="141.6" x2="46.5625" y2="141.6" style="visibility: inherit;" fill="rgb(0, 0, 0)" stroke="rgb(204, 204, 204)" stroke-width="1px"></line><line x1="51.5625" y1="123.89999999999999" x2="46.5625" y2="123.89999999999999" style="visibility: inherit;" fill="rgb(0, 0, 0)" stroke="rgb(204, 204, 204)" stroke-width="1px"></line><line x1="51.5625" y1="106.19999999999997" x2="46.5625" y2="106.19999999999997" style="visibility: inherit;" fill="rgb(0, 0, 0)" stroke="rgb(204, 204, 204)" stroke-width="1px"></line><line x1="51.5625" y1="88.5" x2="46.5625" y2="88.5" style="visibility: inherit;" fill="rgb(0, 0, 0)" stroke="rgb(204, 204, 204)" stroke-width="1px"></line><line x1="51.5625" y1="70.79999999999998" x2="46.5625" y2="70.79999999999998" style="visibility: inherit;" fill="rgb(0, 0, 0)" stroke="rgb(204, 204, 204)" stroke-width="1px"></line><line x1="51.5625" y1="53.099999999999966" x2="46.5625" y2="53.099999999999966" style="visibility: inherit;" fill="rgb(0, 0, 0)" stroke="rgb(204, 204, 204)" stroke-width="1px"></line><line x1="51.5625" y1="35.39999999999999" x2="46.5625" y2="35.39999999999999" style="visibility: inherit;" fill="rgb(0, 0, 0)" stroke="rgb(204, 204, 204)" stroke-width="1px"></line><line x1="51.5625" y1="17.699999999999978" x2="46.5625" y2="17.699999999999978" style="visibility: inherit;" fill="rgb(0, 0, 0)" stroke="rgb(204, 204, 204)" stroke-width="1px"></line><line x1="51.5625" y1="0" x2="46.5625" y2="0" style="visibility: inherit;" fill="rgb(0, 0, 0)" stroke="rgb(204, 204, 204)" stroke-width="1px"></line></g><g transform="translate(41.5625, 0)"><text x="0" y="177" dx="0em" dy="0.3em" style="text-anchor: end; visibility: hidden; font-family: Roboto, sans-serif; font-size: 12px; font-weight: 200;" fill="rgb(33, 33, 33)" stroke="none" stroke-width="1px">0.45</text><text x="0" y="159.3" dx="0em" dy="0.3em" style="text-anchor: end; visibility: inherit; font-family: Roboto, sans-serif; font-size: 12px; font-weight: 200;" fill="rgb(33, 33, 33)" stroke="none" stroke-width="1px">0.5</text><text x="0" y="141.6" dx="0em" dy="0.3em" style="text-anchor: end; visibility: hidden; font-family: Roboto, sans-serif; font-size: 12px; font-weight: 200;" fill="rgb(33, 33, 33)" stroke="none" stroke-width="1px">0.55</text><text x="0" y="123.89999999999999" dx="0em" dy="0.3em" style="text-anchor: end; visibility: inherit; font-family: Roboto, sans-serif; font-size: 12px; font-weight: 200;" fill="rgb(33, 33, 33)" stroke="none" stroke-width="1px">0.6</text><text x="0" y="106.19999999999997" dx="0em" dy="0.3em" style="text-anchor: end; visibility: hidden; font-family: Roboto, sans-serif; font-size: 12px; font-weight: 200;" fill="rgb(33, 33, 33)" stroke="none" stroke-width="1px">0.65</text><text x="0" y="88.5" dx="0em" dy="0.3em" style="text-anchor: end; visibility: inherit; font-family: Roboto, sans-serif; font-size: 12px; font-weight: 200;" fill="rgb(33, 33, 33)" stroke="none" stroke-width="1px">0.7</text><text x="0" y="70.79999999999998" dx="0em" dy="0.3em" style="text-anchor: end; visibility: hidden; font-family: Roboto, sans-serif; font-size: 12px; font-weight: 200;" fill="rgb(33, 33, 33)" stroke="none" stroke-width="1px">0.75</text><text x="0" y="53.099999999999966" dx="0em" dy="0.3em" style="text-anchor: end; visibility: inherit; font-family: Roboto, sans-serif; font-size: 12px; font-weight: 200;" fill="rgb(33, 33, 33)" stroke="none" stroke-width="1px">0.8</text><text x="0" y="35.39999999999999" dx="0em" dy="0.3em" style="text-anchor: end; visibility: hidden; font-family: Roboto, sans-serif; font-size: 12px; font-weight: 200;" fill="rgb(33, 33, 33)" stroke="none" stroke-width="1px">0.85</text><text x="0" y="17.699999999999978" dx="0em" dy="0.3em" style="text-anchor: end; visibility: inherit; font-family: Roboto, sans-serif; font-size: 12px; font-weight: 200;" fill="rgb(33, 33, 33)" stroke="none" stroke-width="1px">0.9</text><text x="0" y="0" dx="0em" dy="0.3em" style="text-anchor: end; visibility: hidden; font-family: Roboto, sans-serif; font-size: 12px; font-weight: 200;" fill="rgb(33, 33, 33)" stroke="none" stroke-width="1px">0.95</text></g><line x1="51.5625" y1="0" x2="51.5625" y2="177" fill="rgb(0, 0, 0)" stroke="rgb(204, 204, 204)" stroke-width="1px"></line></g></g><g transform="translate(51, 0)" clip-path="url(#clip_0)"><clipPath id="clip_0"><rect width="278" height="177"></rect></clipPath><g><g><g><line x1="0" y1="0" x2="0" y2="177" fill="rgb(0, 0, 0)" stroke="rgb(66, 66, 66)" stroke-width="1px" opacity="0.25"></line><line x1="30.9375" y1="0" x2="30.9375" y2="177" fill="rgb(0, 0, 0)" stroke="rgb(66, 66, 66)" stroke-width="1px" opacity="0.25"></line><line x1="61.875" y1="0" x2="61.875" y2="177" fill="rgb(0, 0, 0)" stroke="rgb(66, 66, 66)" stroke-width="1px" opacity="0.25"></line><line x1="92.8125" y1="0" x2="92.8125" y2="177" fill="rgb(0, 0, 0)" stroke="rgb(66, 66, 66)" stroke-width="1px" opacity="0.25"></line><line x1="123.75" y1="0" x2="123.75" y2="177" fill="rgb(0, 0, 0)" stroke="rgb(66, 66, 66)" stroke-width="1px" opacity="0.25"></line><line x1="154.6875" y1="0" x2="154.6875" y2="177" fill="rgb(0, 0, 0)" stroke="rgb(66, 66, 66)" stroke-width="1px" opacity="0.25"></line><line x1="185.625" y1="0" x2="185.625" y2="177" fill="rgb(0, 0, 0)" stroke="rgb(66, 66, 66)" stroke-width="1px" opacity="0.25"></line><line x1="216.5625" y1="0" x2="216.5625" y2="177" fill="rgb(0, 0, 0)" stroke="rgb(66, 66, 66)" stroke-width="1px" opacity="0.25"></line><line x1="247.5" y1="0" x2="247.5" y2="177" fill="rgb(0, 0, 0)" stroke="rgb(66, 66, 66)" stroke-width="1px" opacity="0.25"></line><line x1="278.4375" y1="0" x2="278.4375" y2="177" fill="rgb(0, 0, 0)" stroke="rgb(66, 66, 66)" stroke-width="1px" opacity="0.25"></line></g><g><line x1="0" y1="177" x2="278.4375" y2="177" fill="rgb(0, 0, 0)" stroke="rgb(66, 66, 66)" stroke-width="1px" opacity="0.25"></line><line x1="0" y1="159.3" x2="278.4375" y2="159.3" fill="rgb(0, 0, 0)" stroke="rgb(66, 66, 66)" stroke-width="1px" opacity="0.25"></line><line x1="0" y1="141.6" x2="278.4375" y2="141.6" fill="rgb(0, 0, 0)" stroke="rgb(66, 66, 66)" stroke-width="1px" opacity="0.25"></line><line x1="0" y1="123.89999999999999" x2="278.4375" y2="123.89999999999999" fill="rgb(0, 0, 0)" stroke="rgb(66, 66, 66)" stroke-width="1px" opacity="0.25"></line><line x1="0" y1="106.19999999999997" x2="278.4375" y2="106.19999999999997" fill="rgb(0, 0, 0)" stroke="rgb(66, 66, 66)" stroke-width="1px" opacity="0.25"></line><line x1="0" y1="88.5" x2="278.4375" y2="88.5" fill="rgb(0, 0, 0)" stroke="rgb(66, 66, 66)" stroke-width="1px" opacity="0.25"></line><line x1="0" y1="70.79999999999998" x2="278.4375" y2="70.79999999999998" fill="rgb(0, 0, 0)" stroke="rgb(66, 66, 66)" stroke-width="1px" opacity="0.25"></line><line x1="0" y1="53.099999999999966" x2="278.4375" y2="53.099999999999966" fill="rgb(0, 0, 0)" stroke="rgb(66, 66, 66)" stroke-width="1px" opacity="0.25"></line><line x1="0" y1="35.39999999999999" x2="278.4375" y2="35.39999999999999" fill="rgb(0, 0, 0)" stroke="rgb(66, 66, 66)" stroke-width="1px" opacity="0.25"></line><line x1="0" y1="17.699999999999978" x2="278.4375" y2="17.699999999999978" fill="rgb(0, 0, 0)" stroke="rgb(66, 66, 66)" stroke-width="1px" opacity="0.25"></line><line x1="0" y1="0" x2="278.4375" y2="0" fill="rgb(0, 0, 0)" stroke="rgb(66, 66, 66)" stroke-width="1px" opacity="0.25"></line></g></g></g><g><g><line x1="0" y1="336.3" x2="278.4375" y2="336.3" fill="rgb(0, 0, 0)" stroke="rgb(153, 153, 153)" stroke-width="1.5px"></line></g></g><g><g><line x1="0" y1="0" x2="0" y2="177" fill="rgb(0, 0, 0)" stroke="rgb(153, 153, 153)" stroke-width="1.5px"></line></g></g><g><g><g><g><g><path stroke="rgb(51, 187, 238)" stroke-width="2px" d="M12.375,-1.8897196739837285L18.5625,27.130213861135385L24.75,26.116997362091308L30.9375,32.97065163091919L37.125,55.528892914179785L43.3125,67.37385481446297L49.5,60.39759355018218L55.6875,70.19193042677979L61.875,71.70640048730439L68.0625,75.5495001361105L74.25,76.84667646816014L80.43749999999999,86.60793974187074L86.625,94.21046716195877L92.8125,83.5303798546807L99,92.34490833638988L105.1875,93.50431432565468L111.375,83.22640909146817L117.5625,101.4268874995769L123.75,105.77989790228938L129.9375,103.59867066709023L136.125,100.65894928920525L142.3125,98.8205446509322L148.5,105.0532503700929L154.6875,114.8004227661933L160.87499999999997,111.54135997911868L167.0625,116.07573387880181L173.25,115.31745390594635L179.4375,111.91327493871273L185.625,113.70719538214752L191.8125,122.35820659014325L198,127.45369829174786L204.18749999999997,121.67502516970507L210.375,120.37175096658964L216.5625,125.53589060572045" style="fill: none;" fill="none"></path></g><g><path stroke="rgb(204, 51, 17)" stroke-width="2px" d="M6.1875,-26.157066535949763L12.375,17.461537220603535L18.5625,32.26068990065311L24.75,33.06582581636411L30.9375,36.322652932021896L37.125,63.068611722962956L43.3125,74.84575043939955L49.5,70.74421156835892L55.6875,79.75180099466036L61.875,81.96973325911496L68.0625,88.17719315681725L74.25,87.01510179205656L80.43749999999999,95.69209525929482L86.625,104.61319041733894L92.8125,94.29519870089298L99,100.98371271535363L105.1875,103.95007207022996L111.375,93.15258978539185L117.5625,112.74025097124748L123.75,121.97725850646798L129.9375,115.19519029411181L136.125,114.47880841006679L142.3125,114.15859012232458L148.5,119.11558023141193L154.6875,125.13207187059058L160.87499999999997,119.13117771050827L167.0625,123.22205561558995L173.25,117.50984043995574L179.4375,120.04298988867846L185.625,123.14300871110503L191.8125,129.69763784417566L198,134.9998278308092L204.18749999999997,131.33699234700313L210.375,132.71042330869528L216.5625,137.83334024147862L222.75,133.24542564387667L228.9375,127.67971546954712L235.125,137.11233367889363" style="fill: none;" fill="none"></path></g><g><path stroke="rgb(0, 119, 187)" stroke-width="2px" d="M6.1875,-21.7639107227326L12.375,23.785849464746345L18.5625,23.249714875049705L24.75,25.983561171828246L30.9375,35.856091587930464L37.125,57.2684148435436L43.3125,68.56365025110286L49.5,74.13161429321828L55.6875,75.00960001945573L61.875,79.79330230493298L68.0625,83.35941763319342L74.25,80.94928211198497L80.43749999999999,95.81325320402843L86.625,100.94734223956802L92.8125,93.15515312568421L99,105.49207508489451L105.1875,109.1732057398557L111.375,97.71775679075904L117.5625,112.13300441903316L123.75,114.13707817663035L129.9375,111.07810036179471L136.125,113.0082562444438L142.3125,112.95357847352547L148.5,117.3630859865539L154.6875,120.94360759204201L160.87499999999997,124.869661226476L167.0625,125.59477139951898L173.25,122.88078535602986L179.4375,123.8555610381035L185.625,127.89649077718717" style="fill: none;" fill="none"></path></g><g><path stroke="rgb(255, 112, 67)" stroke-width="2px" d="M6.1875,3.1612128496169887L12.375,28.18077100088122L18.5625,29.075449335377982L24.75,23.8872392903122L30.9375,35.43509076280427L37.125,57.10021665000622L43.3125,73.63023144418254L49.5,70.51044951410995L55.6875,75.17745513230732L61.875,83.12096774809143L68.0625,86.14125466542541L74.25,91.38961965451921L80.43749999999999,96.11611031537117L86.625,105.2595620464909L92.8125,95.83814959565338L99,94.68426316757191L105.1875,104.98033463754206L111.375,95.83146418927522L117.5625,117.73091463824879L123.75,116.8828956231357L129.9375,118.3418200149319L136.125,117.58314658429958L142.3125,119.03976363698705L148.5,126.08646422733996L154.6875,130.0301936554322L160.87499999999997,128.72062129853765L167.0625,129.36090342085444L173.25,128.5177107730998L179.4375,129.71889511234565L185.625,134.6117434083754L191.8125,164.13543102903853L198,172.27117401146737L204.18749999999997,174.68406943919084L210.375,173.57322559584617L216.5625,176.60918717128834L222.75,183.28479522738195" style="fill: none;" fill="none"></path></g></g></g></g><g opacity="0.2"><g><g><g><path stroke="rgb(51, 187, 238)" stroke-width="2px" d="M6.1875,-89.93722529411322L12.375,15.455638933181747L18.5625,33.97337536811827L24.75,25.870325374603254L30.9375,34.649526286125166L37.125,61.06146447658537L43.3125,70.27960960865019L49.5,58.68612699508665L55.6875,72.59476976394652L61.875,72.07794528007506L68.0625,76.49232773780821L74.25,77.16491274833677L80.43749999999999,89.00267057418822L86.625,96.07559530735014L92.8125,80.9102339029312L99,94.5073767185211L105.1875,93.78875141143797L111.375,80.70493047237395L117.5625,105.8920110940933L123.75,106.84782199859617L129.9375,103.06355016231535L136.125,99.93774740695952L142.3125,98.36952881813048L148.5,106.58232014179228L154.6875,117.19169669151304L160.87499999999997,110.74181406497954L167.0625,117.18815188407896L173.25,115.13142507076262L179.4375,111.07812767028807L185.625,114.1472979068756L191.8125,124.48055927753447L198,128.7037753343582L204.18749999999997,120.25734322071074L210.375,120.05201869010924L216.5625,126.80280904769896" style="fill: none;" fill="none"></path></g><g><path stroke="rgb(204, 51, 17)" stroke-width="2px" d="M6.1875,-26.157066535949763L12.375,26.054402160644514L18.5625,35.75046329498289L24.75,33.2618396759033L30.9375,37.120446968078596L37.125,69.62825124263762L43.3125,77.73486714363096L49.5,69.7379925727844L55.6875,81.96162800788878L61.875,82.51385836601256L68.0625,89.70006923675535L74.25,86.73000590801237L80.43749999999999,97.82082216739653L86.625,106.80180280208586L92.8125,91.76388566493986L99,102.62460594177244L105.1875,104.67780904769896L111.375,90.50364332199095L117.5625,117.54569213390349L123.75,124.24337368011473L129.9375,113.53134541511534L136.125,114.3030584335327L142.3125,114.08003096580504L148.5,120.33167867660521L154.6875,126.60809783935545L160.87499999999997,117.65897827148436L167.0625,124.22567074298857L173.25,116.10846261978148L179.4375,120.66444747447966L185.625,123.90353636741636L191.8125,131.30568509101866L198,136.30061416625978L204.18749999999997,130.4383888721466L210.375,133.047367143631L216.5625,139.09014551639558L222.75,132.11987249851225L228.9375,126.3142797231674L235.125,139.42643802165986" style="fill: none;" fill="none"></path></g><g><path stroke="rgb(0, 119, 187)" stroke-width="2px" d="M6.1875,-21.7639107227326L12.375,32.75915222167967L18.5625,23.123289513587935L24.75,26.649128007888777L30.9375,38.27447168827055L37.125,62.51994173526762L43.3125,71.33454852104185L49.5,75.49758725166319L55.6875,75.22499577999113L61.875,80.96688752174376L68.0625,84.23429267406462L74.25,80.35800354480742L80.43749999999999,99.45983140468596L86.625,102.20688836574553L92.8125,91.24349527359007L99,108.51869230270384L105.1875,110.07629756927489L111.375,94.90739135742186L117.5625,115.66949729919432L123.75,114.62873761653898L129.9375,110.3276412963867L136.125,113.48178141117094L142.3125,112.94016437530516L148.5,118.44487051963804L154.6875,121.8220170021057L160.87499999999997,125.83284001350401L167.0625,125.77266268730162L173.25,122.21496312618254L179.4375,124.09470276832579L185.625,128.88785212039946" style="fill: none;" fill="none"></path></g><g><path stroke="rgb(255, 112, 67)" stroke-width="2px" d="M6.1875,3.1612128496169887L12.375,33.10962395668028L18.5625,29.286422538757307L24.75,22.624146866798384L30.9375,38.263858366012556L37.125,62.413745212554915L43.3125,77.68530313968657L49.5,69.74508218765257L55.6875,76.32240908145903L61.875,85.0697489261627L68.0625,86.8822216272354L74.25,92.67720108032225L80.43749999999999,97.27566032409666L86.625,107.50272517204283L92.8125,93.52679436206816L99,94.4011801958084L105.1875,107.50626997947691L111.375,93.58697168827055L117.5625,123.10350708961485L123.75,116.67485110759733L129.9375,118.69973795413969L136.125,117.39702122211455L142.3125,119.39711551666258L148.5,127.81523137092589L154.6875,130.99770884513853L160.87499999999997,128.39934389591215L167.0625,129.51798384189604L173.25,128.3108503103256L179.4375,130.0135816812515L185.625,135.81210594177247L191.8125,171.37847768068315L198,174.2671159386635L204.18749999999997,175.27602510452272L210.375,173.30070226192476L216.5625,177.3539996623993" style="fill: none;" fill="none"></path></g></g></g></g></g></g><g transform="translate(51, 177)" clip-path="url(#clip_1)"><clipPath id="clip_1"><rect width="278" height="23"></rect></clipPath><g><g><line x1="0" y1="0" x2="0" y2="5" style="visibility: inherit;" fill="rgb(0, 0, 0)" stroke="rgb(204, 204, 204)" stroke-width="1px"></line><line x1="30.9375" y1="0" x2="30.9375" y2="5" style="visibility: inherit;" fill="rgb(0, 0, 0)" stroke="rgb(204, 204, 204)" stroke-width="1px"></line><line x1="61.875" y1="0" x2="61.875" y2="5" style="visibility: inherit;" fill="rgb(0, 0, 0)" stroke="rgb(204, 204, 204)" stroke-width="1px"></line><line x1="92.8125" y1="0" x2="92.8125" y2="5" style="visibility: inherit;" fill="rgb(0, 0, 0)" stroke="rgb(204, 204, 204)" stroke-width="1px"></line><line x1="123.75" y1="0" x2="123.75" y2="5" style="visibility: inherit;" fill="rgb(0, 0, 0)" stroke="rgb(204, 204, 204)" stroke-width="1px"></line><line x1="154.6875" y1="0" x2="154.6875" y2="5" style="visibility: inherit;" fill="rgb(0, 0, 0)" stroke="rgb(204, 204, 204)" stroke-width="1px"></line><line x1="185.625" y1="0" x2="185.625" y2="5" style="visibility: inherit;" fill="rgb(0, 0, 0)" stroke="rgb(204, 204, 204)" stroke-width="1px"></line><line x1="216.5625" y1="0" x2="216.5625" y2="5" style="visibility: inherit;" fill="rgb(0, 0, 0)" stroke="rgb(204, 204, 204)" stroke-width="1px"></line><line x1="247.5" y1="0" x2="247.5" y2="5" style="visibility: inherit;" fill="rgb(0, 0, 0)" stroke="rgb(204, 204, 204)" stroke-width="1px"></line><line x1="278.4375" y1="0" x2="278.4375" y2="5" style="visibility: inherit;" fill="rgb(0, 0, 0)" stroke="rgb(204, 204, 204)" stroke-width="1px"></line></g><g transform="translate(0, 8)"><text x="0" y="0" dx="0em" dy="0.95em" style="text-anchor: middle; visibility: hidden; font-family: Roboto, sans-serif; font-size: 12px; font-weight: 200;" fill="rgb(33, 33, 33)" stroke="none" stroke-width="1px">0</text><text x="30.9375" y="0" dx="0em" dy="0.95em" style="text-anchor: middle; visibility: inherit; font-family: Roboto, sans-serif; font-size: 12px; font-weight: 200;" fill="rgb(33, 33, 33)" stroke="none" stroke-width="1px">5</text><text x="61.875" y="0" dx="0em" dy="0.95em" style="text-anchor: middle; visibility: inherit; font-family: Roboto, sans-serif; font-size: 12px; font-weight: 200;" fill="rgb(33, 33, 33)" stroke="none" stroke-width="1px">10</text><text x="92.8125" y="0" dx="0em" dy="0.95em" style="text-anchor: middle; visibility: inherit; font-family: Roboto, sans-serif; font-size: 12px; font-weight: 200;" fill="rgb(33, 33, 33)" stroke="none" stroke-width="1px">15</text><text x="123.75" y="0" dx="0em" dy="0.95em" style="text-anchor: middle; visibility: inherit; font-family: Roboto, sans-serif; font-size: 12px; font-weight: 200;" fill="rgb(33, 33, 33)" stroke="none" stroke-width="1px">20</text><text x="154.6875" y="0" dx="0em" dy="0.95em" style="text-anchor: middle; visibility: inherit; font-family: Roboto, sans-serif; font-size: 12px; font-weight: 200;" fill="rgb(33, 33, 33)" stroke="none" stroke-width="1px">25</text><text x="185.625" y="0" dx="0em" dy="0.95em" style="text-anchor: middle; visibility: inherit; font-family: Roboto, sans-serif; font-size: 12px; font-weight: 200;" fill="rgb(33, 33, 33)" stroke="none" stroke-width="1px">30</text><text x="216.5625" y="0" dx="0em" dy="0.95em" style="text-anchor: middle; visibility: inherit; font-family: Roboto, sans-serif; font-size: 12px; font-weight: 200;" fill="rgb(33, 33, 33)" stroke="none" stroke-width="1px">35</text><text x="247.5" y="0" dx="0em" dy="0.95em" style="text-anchor: middle; visibility: inherit; font-family: Roboto, sans-serif; font-size: 12px; font-weight: 200;" fill="rgb(33, 33, 33)" stroke="none" stroke-width="1px">40</text><text x="278.4375" y="0" dx="0em" dy="0.95em" style="text-anchor: middle; visibility: hidden; font-family: Roboto, sans-serif; font-size: 12px; font-weight: 200;" fill="rgb(33, 33, 33)" stroke="none" stroke-width="1px">45</text></g><line x1="0" y1="0" x2="278.4375" y2="0" fill="rgb(0, 0, 0)" stroke="rgb(204, 204, 204)" stroke-width="1px"></line></g></g></g></g></svg>