<svg viewBox="0 0 330 200" xmlns="http://www.w3.org/2000/svg"><g><g><g><g><g><line x1="41.171875" y1="177" x2="36.171875" y2="177" style="visibility: inherit;" fill="rgb(0, 0, 0)" stroke="rgb(204, 204, 204)" stroke-width="1px"></line><line x1="41.171875" y1="163.3846153846154" x2="36.171875" y2="163.3846153846154" style="visibility: inherit;" fill="rgb(0, 0, 0)" stroke="rgb(204, 204, 204)" stroke-width="1px"></line><line x1="41.171875" y1="149.76923076923077" x2="36.171875" y2="149.76923076923077" style="visibility: inherit;" fill="rgb(0, 0, 0)" stroke="rgb(204, 204, 204)" stroke-width="1px"></line><line x1="41.171875" y1="136.15384615384616" x2="36.171875" y2="136.15384615384616" style="visibility: inherit;" fill="rgb(0, 0, 0)" stroke="rgb(204, 204, 204)" stroke-width="1px"></line><line x1="41.171875" y1="122.53846153846153" x2="36.171875" y2="122.53846153846153" style="visibility: inherit;" fill="rgb(0, 0, 0)" stroke="rgb(204, 204, 204)" stroke-width="1px"></line><line x1="41.171875" y1="108.92307692307693" x2="36.171875" y2="108.92307692307693" style="visibility: inherit;" fill="rgb(0, 0, 0)" stroke="rgb(204, 204, 204)" stroke-width="1px"></line><line x1="41.171875" y1="95.3076923076923" x2="36.171875" y2="95.3076923076923" style="visibility: inherit;" fill="rgb(0, 0, 0)" stroke="rgb(204, 204, 204)" stroke-width="1px"></line><line x1="41.171875" y1="81.6923076923077" x2="36.171875" y2="81.6923076923077" style="visibility: inherit;" fill="rgb(0, 0, 0)" stroke="rgb(204, 204, 204)" stroke-width="1px"></line><line x1="41.171875" y1="68.07692307692307" x2="36.171875" y2="68.07692307692307" style="visibility: inherit;" fill="rgb(0, 0, 0)" stroke="rgb(204, 204, 204)" stroke-width="1px"></line><line x1="41.171875" y1="54.461538461538446" x2="36.171875" y2="54.461538461538446" style="visibility: inherit;" fill="rgb(0, 0, 0)" stroke="rgb(204, 204, 204)" stroke-width="1px"></line><line x1="41.171875" y1="40.84615384615386" x2="36.171875" y2="40.84615384615386" style="visibility: inherit;" fill="rgb(0, 0, 0)" stroke="rgb(204, 204, 204)" stroke-width="1px"></line><line x1="41.171875" y1="27.230769230769234" x2="36.171875" y2="27.230769230769234" style="visibility: inherit;" fill="rgb(0, 0, 0)" stroke="rgb(204, 204, 204)" stroke-width="1px"></line><line x1="41.171875" y1="13.615384615384626" x2="36.171875" y2="13.615384615384626" style="visibility: inherit;" fill="rgb(0, 0, 0)" stroke="rgb(204, 204, 204)" stroke-width="1px"></line><line x1="41.171875" y1="0" x2="36.171875" y2="0" style="visibility: inherit;" fill="rgb(0, 0, 0)" stroke="rgb(204, 204, 204)" stroke-width="1px"></line></g><g transform="translate(31.171875, 0)"><text x="0" y="177" dx="0em" dy="0.3em" style="text-anchor: end; visibility: hidden; font-family: Roboto, sans-serif; font-size: 12px; font-weight: 200;" fill="rgb(33, 33, 33)" stroke="none" stroke-width="1px">0.2</text><text x="0" y="163.3846153846154" dx="0em" dy="0.3em" style="text-anchor: end; visibility: inherit; font-family: Roboto, sans-serif; font-size: 12px; font-weight: 200;" fill="rgb(33, 33, 33)" stroke="none" stroke-width="1px">0.3</text><text x="0" y="149.76923076923077" dx="0em" dy="0.3em" style="text-anchor: end; visibility: hidden; font-family: Roboto, sans-serif; font-size: 12px; font-weight: 200;" fill="rgb(33, 33, 33)" stroke="none" stroke-width="1px">0.4</text><text x="0" y="136.15384615384616" dx="0em" dy="0.3em" style="text-anchor: end; visibility: inherit; font-family: Roboto, sans-serif; font-size: 12px; font-weight: 200;" fill="rgb(33, 33, 33)" stroke="none" stroke-width="1px">0.5</text><text x="0" y="122.53846153846153" dx="0em" dy="0.3em" style="text-anchor: end; visibility: hidden; font-family: Roboto, sans-serif; font-size: 12px; font-weight: 200;" fill="rgb(33, 33, 33)" stroke="none" stroke-width="1px">0.6</text><text x="0" y="108.92307692307693" dx="0em" dy="0.3em" style="text-anchor: end; visibility: inherit; font-family: Roboto, sans-serif; font-size: 12px; font-weight: 200;" fill="rgb(33, 33, 33)" stroke="none" stroke-width="1px">0.7</text><text x="0" y="95.3076923076923" dx="0em" dy="0.3em" style="text-anchor: end; visibility: hidden; font-family: Roboto, sans-serif; font-size: 12px; font-weight: 200;" fill="rgb(33, 33, 33)" stroke="none" stroke-width="1px">0.8</text><text x="0" y="81.6923076923077" dx="0em" dy="0.3em" style="text-anchor: end; visibility: inherit; font-family: Roboto, sans-serif; font-size: 12px; font-weight: 200;" fill="rgb(33, 33, 33)" stroke="none" stroke-width="1px">0.9</text><text x="0" y="68.07692307692307" dx="0em" dy="0.3em" style="text-anchor: end; visibility: hidden; font-family: Roboto, sans-serif; font-size: 12px; font-weight: 200;" fill="rgb(33, 33, 33)" stroke="none" stroke-width="1px">1</text><text x="0" y="54.461538461538446" dx="0em" dy="0.3em" style="text-anchor: end; visibility: inherit; font-family: Roboto, sans-serif; font-size: 12px; font-weight: 200;" fill="rgb(33, 33, 33)" stroke="none" stroke-width="1px">1.1</text><text x="0" y="40.84615384615386" dx="0em" dy="0.3em" style="text-anchor: end; visibility: hidden; font-family: Roboto, sans-serif; font-size: 12px; font-weight: 200;" fill="rgb(33, 33, 33)" stroke="none" stroke-width="1px">1.2</text><text x="0" y="27.230769230769234" dx="0em" dy="0.3em" style="text-anchor: end; visibility: inherit; font-family: Roboto, sans-serif; font-size: 12px; font-weight: 200;" fill="rgb(33, 33, 33)" stroke="none" stroke-width="1px">1.3</text><text x="0" y="13.615384615384626" dx="0em" dy="0.3em" style="text-anchor: end; visibility: hidden; font-family: Roboto, sans-serif; font-size: 12px; font-weight: 200;" fill="rgb(33, 33, 33)" stroke="none" stroke-width="1px">1.4</text><text x="0" y="0" dx="0em" dy="0.3em" style="text-anchor: end; visibility: hidden; font-family: Roboto, sans-serif; font-size: 12px; font-weight: 200;" fill="rgb(33, 33, 33)" stroke="none" stroke-width="1px">1.5</text></g><line x1="41.171875" y1="0" x2="41.171875" y2="177" fill="rgb(0, 0, 0)" stroke="rgb(204, 204, 204)" stroke-width="1px"></line></g></g><g transform="translate(41, 0)" clip-path="url(#clip_0)"><clipPath id="clip_0"><rect width="288" height="177"></rect></clipPath><g><g><g><line x1="0" y1="0" x2="0" y2="177" fill="rgb(0, 0, 0)" stroke="rgb(66, 66, 66)" stroke-width="1px" opacity="0.25"></line><line x1="32.092013888888886" y1="0" x2="32.092013888888886" y2="177" fill="rgb(0, 0, 0)" stroke="rgb(66, 66, 66)" stroke-width="1px" opacity="0.25"></line><line x1="64.18402777777777" y1="0" x2="64.18402777777777" y2="177" fill="rgb(0, 0, 0)" stroke="rgb(66, 66, 66)" stroke-width="1px" opacity="0.25"></line><line x1="96.27604166666666" y1="0" x2="96.27604166666666" y2="177" fill="rgb(0, 0, 0)" stroke="rgb(66, 66, 66)" stroke-width="1px" opacity="0.25"></line><line x1="128.36805555555554" y1="0" x2="128.36805555555554" y2="177" fill="rgb(0, 0, 0)" stroke="rgb(66, 66, 66)" stroke-width="1px" opacity="0.25"></line><line x1="160.46006944444446" y1="0" x2="160.46006944444446" y2="177" fill="rgb(0, 0, 0)" stroke="rgb(66, 66, 66)" stroke-width="1px" opacity="0.25"></line><line x1="192.55208333333331" y1="0" x2="192.55208333333331" y2="177" fill="rgb(0, 0, 0)" stroke="rgb(66, 66, 66)" stroke-width="1px" opacity="0.25"></line><line x1="224.64409722222223" y1="0" x2="224.64409722222223" y2="177" fill="rgb(0, 0, 0)" stroke="rgb(66, 66, 66)" stroke-width="1px" opacity="0.25"></line><line x1="256.7361111111111" y1="0" x2="256.7361111111111" y2="177" fill="rgb(0, 0, 0)" stroke="rgb(66, 66, 66)" stroke-width="1px" opacity="0.25"></line><line x1="288.828125" y1="0" x2="288.828125" y2="177" fill="rgb(0, 0, 0)" stroke="rgb(66, 66, 66)" stroke-width="1px" opacity="0.25"></line></g><g><line x1="0" y1="177" x2="288.828125" y2="177" fill="rgb(0, 0, 0)" stroke="rgb(66, 66, 66)" stroke-width="1px" opacity="0.25"></line><line x1="0" y1="163.3846153846154" x2="288.828125" y2="163.3846153846154" fill="rgb(0, 0, 0)" stroke="rgb(66, 66, 66)" stroke-width="1px" opacity="0.25"></line><line x1="0" y1="149.76923076923077" x2="288.828125" y2="149.76923076923077" fill="rgb(0, 0, 0)" stroke="rgb(66, 66, 66)" stroke-width="1px" opacity="0.25"></line><line x1="0" y1="136.15384615384616" x2="288.828125" y2="136.15384615384616" fill="rgb(0, 0, 0)" stroke="rgb(66, 66, 66)" stroke-width="1px" opacity="0.25"></line><line x1="0" y1="122.53846153846153" x2="288.828125" y2="122.53846153846153" fill="rgb(0, 0, 0)" stroke="rgb(66, 66, 66)" stroke-width="1px" opacity="0.25"></line><line x1="0" y1="108.92307692307693" x2="288.828125" y2="108.92307692307693" fill="rgb(0, 0, 0)" stroke="rgb(66, 66, 66)" stroke-width="1px" opacity="0.25"></line><line x1="0" y1="95.3076923076923" x2="288.828125" y2="95.3076923076923" fill="rgb(0, 0, 0)" stroke="rgb(66, 66, 66)" stroke-width="1px" opacity="0.25"></line><line x1="0" y1="81.6923076923077" x2="288.828125" y2="81.6923076923077" fill="rgb(0, 0, 0)" stroke="rgb(66, 66, 66)" stroke-width="1px" opacity="0.25"></line><line x1="0" y1="68.07692307692307" x2="288.828125" y2="68.07692307692307" fill="rgb(0, 0, 0)" stroke="rgb(66, 66, 66)" stroke-width="1px" opacity="0.25"></line><line x1="0" y1="54.461538461538446" x2="288.828125" y2="54.461538461538446" fill="rgb(0, 0, 0)" stroke="rgb(66, 66, 66)" stroke-width="1px" opacity="0.25"></line><line x1="0" y1="40.84615384615386" x2="288.828125" y2="40.84615384615386" fill="rgb(0, 0, 0)" stroke="rgb(66, 66, 66)" stroke-width="1px" opacity="0.25"></line><line x1="0" y1="27.230769230769234" x2="288.828125" y2="27.230769230769234" fill="rgb(0, 0, 0)" stroke="rgb(66, 66, 66)" stroke-width="1px" opacity="0.25"></line><line x1="0" y1="13.615384615384626" x2="288.828125" y2="13.615384615384626" fill="rgb(0, 0, 0)" stroke="rgb(66, 66, 66)" stroke-width="1px" opacity="0.25"></line><line x1="0" y1="0" x2="288.828125" y2="0" fill="rgb(0, 0, 0)" stroke="rgb(66, 66, 66)" stroke-width="1px" opacity="0.25"></line></g></g></g><g><g><line x1="0" y1="204.23076923076923" x2="288.828125" y2="204.23076923076923" fill="rgb(0, 0, 0)" stroke="rgb(153, 153, 153)" stroke-width="1.5px"></line></g></g><g><g><line x1="0" y1="0" x2="0" y2="177" fill="rgb(0, 0, 0)" stroke="rgb(153, 153, 153)" stroke-width="1.5px"></line></g></g><g><g><g><g><g><path stroke="rgb(51, 187, 238)" stroke-width="2px" d="M12.836805555555555,-46.80650312178436L19.255208333333332,16.023071634591286L25.67361111111111,45.19472124162492L32.092013888888886,59.65497369773047L38.510416666666664,74.04232642132949L44.92881944444444,82.48897715078071L51.34722222222222,90.21313424008984L57.765625,93.3102400700606L64.18402777777777,97.68902942597096L70.60243055555556,104.32545065832038L77.02083333333333,107.23671426084807L83.4392361111111,111.4039667833238L89.85763888888889,112.04014193687456L96.27604166666666,116.18996028132776L102.69444444444444,118.14780659313973L109.11284722222221,121.31598901115255L115.53125,119.92732436950294L121.94965277777777,123.41038817283406L128.36805555555554,127.1775148421017L134.78645833333334,126.25124157933394L141.20486111111111,127.80932202255079L147.62326388888889,126.72666272278137L154.04166666666666,128.2692427686964L160.46006944444446,130.9073622408025L166.8784722222222,132.7587267163672L173.296875,135.05205326845095L179.71527777777777,132.95204193456996L186.13368055555557,134.95019093160062L192.55208333333331,137.04284206293778L198.97048611111111,140.8235988731552L205.38888888888889,140.77466157004665L211.80729166666666,139.51317235046935L218.22569444444443,141.18998884085116L224.64409722222223,143.91030949975632" style="fill: none;" fill="none"></path></g><g><path stroke="rgb(204, 51, 17)" stroke-width="2px" d="M12.836805555555555,-3.2837351397647754L19.255208333333332,40.47487752210089L25.67361111111111,66.11751025510694L32.092013888888886,79.37036666238835L38.510416666666664,88.0194137819579L44.92881944444444,97.59912067892573L51.34722222222222,103.94367973178858L57.765625,107.44796009824371L64.18402777777777,111.07385226476674L70.60243055555556,116.050991742139L77.02083333333333,120.940087573699L83.4392361111111,120.31902452971039L89.85763888888889,120.37598121708344L96.27604166666666,125.36834683133719L102.69444444444444,128.0530384614337L109.11284722222221,130.33888144066293L115.53125,131.73053816312034L121.94965277777777,133.38227243296637L128.36805555555554,135.93365343980017L134.78645833333334,135.13741894617826L141.20486111111111,137.10377900159912L147.62326388888889,136.68209788580825L154.04166666666666,136.7925424061222L160.46006944444446,138.25310196342843L166.8784722222222,140.53941592236708L173.296875,144.64586574695443L179.71527777777777,144.2051773918175L186.13368055555557,144.61909925920122L192.55208333333331,146.40730821365793L198.97048611111111,148.4520356140889L205.38888888888889,148.17589813215702L211.80729166666666,148.206779417622L218.22569444444443,149.30726891461555L224.64409722222223,151.150918806743L231.0625,150.24477852902297L237.48090277777777,151.9850397350991L243.89930555555554,153.53161046564816" style="fill: none;" fill="none"></path></g><g><path stroke="rgb(0, 119, 187)" stroke-width="2px" d="M6.418402777777778,-111.13286183430597L12.836805555555555,9.437802629432216L19.255208333333332,54.54990335104964L25.67361111111111,72.78445428671849L32.092013888888886,87.1401117694706L38.510416666666664,93.63455527473526L44.92881944444444,102.58765965840755L51.34722222222222,109.44946605467264L57.765625,112.04323265275372L64.18402777777777,115.15739089226588L70.60243055555556,120.22832607462807L77.02083333333333,123.87093628995129L83.4392361111111,123.95987409169729L89.85763888888889,126.29085090592069L96.27604166666666,129.3904115142343L102.69444444444444,131.70112575806598L109.11284722222221,134.3899829040933L115.53125,135.30234647820666L121.94965277777777,135.34979375179802L128.36805555555554,139.27648891496435L134.78645833333334,141.14445374586506L141.20486111111111,140.94064108498029L147.62326388888889,140.19857973298798L154.04166666666666,142.10782878017605L160.46006944444446,143.67894148928832L166.8784722222222,144.01031737082246L173.296875,147.16968282953312L179.71527777777777,147.9265557756922L186.13368055555557,147.47214790939626L192.55208333333331,149.1253754360024" style="fill: none;" fill="none"></path></g><g><path stroke="rgb(255, 112, 67)" stroke-width="2px" d="M6.418402777777778,-95.76518022097072L12.836805555555555,14.696893863924359L19.255208333333332,54.88134179404961L25.67361111111111,70.69336349933089L32.092013888888886,88.60206573219843L38.510416666666664,99.06137327570704L44.92881944444444,108.58651061493339L51.34722222222222,114.6775997201246L57.765625,114.6475485500418L64.18402777777777,118.42450217328383L70.60243055555556,124.76742839147876L77.02083333333333,127.08187339262223L83.4392361111111,128.4583895703871L89.85763888888889,132.15601400183792L96.27604166666666,133.04625486870822L102.69444444444444,134.87253880047706L109.11284722222221,137.56654793808974L115.53125,137.82831183661068L121.94965277777777,141.89234791223802L128.36805555555554,142.02494594907225L134.78645833333334,144.2103655426773L141.20486111111111,144.86283786476662L147.62326388888889,144.35178354584465L154.04166666666666,144.7179533889627L160.46006944444446,146.391794489345L166.8784722222222,149.3028583545945L173.296875,152.43688322682596L179.71527777777777,151.61111145595012L186.13368055555557,153.20757622881607L192.55208333333331,154.7269138621649L198.97048611111111,160.04672919443L205.38888888888889,162.7762513415366L211.80729166666666,163.0625052968685L218.22569444444443,163.44689097698668L224.64409722222223,163.55432180175325L231.0625,165.63857137542274L237.48090277777777,166.59801205436048L243.89930555555554,169.33663544913588L250.31770833333334,170.77922078348936L256.7361111111111,171.92822237747174" style="fill: none;" fill="none"></path></g></g></g></g><g opacity="0.2"><g><g><g><path stroke="rgb(51, 187, 238)" stroke-width="2px" d="M12.836805555555555,-9.379635132276086L19.255208333333332,30.838850828317494L25.67361111111111,52.29668690608098L32.092013888888886,63.19716453552246L38.510416666666664,77.57092856443845L44.92881944444444,84.56107295476473L51.34722222222222,92.10807997446793L57.765625,94.07005135829633L64.18402777777777,98.76327739312097L70.60243055555556,105.95356381856477L77.02083333333333,107.95093458432419L83.4392361111111,112.42631889306583L89.85763888888889,112.19621479511261L96.27604166666666,117.20803526731638L102.69444444444444,118.62812505318568L109.11284722222221,122.09323924321396L115.53125,119.58664325567392L121.94965277777777,124.26488825908073L128.36805555555554,128.10170407478626L134.78645833333334,126.02399894824394L141.20486111111111,128.19156591708844L147.62326388888889,126.46105390328628L154.04166666666666,128.64768395057092L160.46006944444446,131.55457212374762L166.8784722222222,133.2129219862131L173.296875,135.6146751000331L179.71527777777777,132.4368461278769L186.13368055555557,135.4403968499257L192.55208333333331,137.55623219104913L198.97048611111111,141.7511319884887L205.38888888888889,140.7626557808656L211.80729166666666,139.20369118452072L218.22569444444443,141.60136225131842L224.64409722222223,144.57768580088248" style="fill: none;" fill="none"></path></g><g><path stroke="rgb(204, 51, 17)" stroke-width="2px" d="M6.418402777777778,-119.04067149529087L12.836805555555555,19.520381322273835L19.255208333333332,50.79355221528274L25.67361111111111,72.36032132919019L32.092013888888886,82.61679314650021L38.510416666666664,90.14065504074097L44.92881944444444,99.94917291861313L51.34722222222222,105.50017256003159L57.765625,108.30766329398521L64.18402777777777,111.96339203761175L70.60243055555556,117.27203332460844L77.02083333333333,122.13952949413887L83.4392361111111,120.16665912591495L89.85763888888889,120.38995440189655L96.27604166666666,126.59312394949106L102.69444444444444,128.71167389246133L109.11284722222221,130.8996673272206L115.53125,132.0719533241712L121.94965277777777,133.78749242195715L128.36805555555554,136.5595837739798L134.78645833333334,134.94207872794226L141.20486111111111,137.58618613848319L147.62326388888889,136.57864685241992L154.04166666666666,136.81963776166623L160.46006944444446,138.61142105781116L166.8784722222222,141.10031735438568L173.296875,145.6533011335593L179.71527777777777,144.09706331216373L186.13368055555557,144.72064671608118L192.55208333333331,146.84600953872388L198.97048611111111,148.95366861270023L205.38888888888889,148.10815332027582L211.80729166666666,148.21435552376968L218.22569444444443,149.5772520166177L224.64409722222223,151.60322145773816L231.0625,150.02247512340546L237.48090277777777,152.41197803845773L243.89930555555554,153.91103068223367" style="fill: none;" fill="none"></path></g><g><path stroke="rgb(0, 119, 187)" stroke-width="2px" d="M6.418402777777778,-111.13286183430597L12.836805555555555,33.19022352878864L19.255208333333332,65.18774271011353L25.67361111111111,77.2237354516983L32.092013888888886,90.65668096909157L38.510416666666664,95.2273644392307L44.92881944444444,104.78399648116185L51.34722222222222,111.13285371890434L57.765625,112.67956000107986L64.18402777777777,115.92138703052814L70.60243055555556,121.47237855654495L77.02083333333333,124.76457788394049L83.4392361111111,123.98169320363266L89.85763888888889,126.86270947639758L96.27604166666666,130.15082675677078L102.69444444444444,132.26801331226642L109.11284722222221,135.04964026120993L115.53125,135.52617664520557L121.94965277777777,135.36143399201907L128.36805555555554,140.2398250882442L134.78645833333334,141.60272158109225L141.20486111111111,140.89063972234726L147.62326388888889,140.0165298122626L154.04166666666666,142.57622487269916L160.46006944444446,144.06438258978037L166.8784722222222,144.09161381996597L173.296875,147.94476999686313L179.71527777777777,148.11223942499893L186.13368055555557,147.360668021899L192.55208333333331,149.53096176569278" style="fill: none;" fill="none"></path></g><g><path stroke="rgb(255, 112, 67)" stroke-width="2px" d="M6.418402777777778,-95.76518022097072L12.836805555555555,36.45792245864868L19.255208333333332,64.35719627600449L25.67361111111111,74.54286932945251L32.092013888888886,92.98899059112256L38.510416666666664,101.62659397492043L44.92881944444444,110.92317608686594L51.34722222222222,116.17190947899452L57.765625,114.64017611283523L64.18402777777777,119.3511018386254L70.60243055555556,126.32353842258453L77.02083333333333,127.64967620372772L83.4392361111111,128.79609030026657L89.85763888888889,133.06315224904282L96.27604166666666,133.26465767163498L102.69444444444444,135.32058106018948L109.11284722222221,138.22746923336615L115.53125,137.89253037709457L121.94965277777777,142.88937793328213L128.36805555555554,142.05747622710007L134.78645833333334,144.74651455879211L141.20486111111111,145.02290890767026L147.62326388888889,144.22640658341922L154.04166666666666,144.8077858411349L160.46006944444446,146.80243794734662L166.8784722222222,150.0170296889085L173.296875,153.20575358775946L179.71527777777777,151.40852485711758L186.13368055555557,153.59923695142453L192.55208333333331,155.0996529826751L198.97048611111111,161.35183955614383L205.38888888888889,163.44588504387784L211.80729166666666,163.13273198329486L218.22569444444443,163.54119232067694L224.64409722222223,163.58067780733109L231.0625,166.1499003492869L237.48090277777777,166.83339164807248L243.89930555555554,170.00850196068103L250.31770833333334,171.13313026153125L256.7361111111111,172.2101069528323" style="fill: none;" fill="none"></path></g></g></g></g></g></g><g transform="translate(41, 177)" clip-path="url(#clip_1)"><clipPath id="clip_1"><rect width="288" height="23"></rect></clipPath><g><g><line x1="0" y1="0" x2="0" y2="5" style="visibility: inherit;" fill="rgb(0, 0, 0)" stroke="rgb(204, 204, 204)" stroke-width="1px"></line><line x1="32.092013888888886" y1="0" x2="32.092013888888886" y2="5" style="visibility: inherit;" fill="rgb(0, 0, 0)" stroke="rgb(204, 204, 204)" stroke-width="1px"></line><line x1="64.18402777777777" y1="0" x2="64.18402777777777" y2="5" style="visibility: inherit;" fill="rgb(0, 0, 0)" stroke="rgb(204, 204, 204)" stroke-width="1px"></line><line x1="96.27604166666666" y1="0" x2="96.27604166666666" y2="5" style="visibility: inherit;" fill="rgb(0, 0, 0)" stroke="rgb(204, 204, 204)" stroke-width="1px"></line><line x1="128.36805555555554" y1="0" x2="128.36805555555554" y2="5" style="visibility: inherit;" fill="rgb(0, 0, 0)" stroke="rgb(204, 204, 204)" stroke-width="1px"></line><line x1="160.46006944444446" y1="0" x2="160.46006944444446" y2="5" style="visibility: inherit;" fill="rgb(0, 0, 0)" stroke="rgb(204, 204, 204)" stroke-width="1px"></line><line x1="192.55208333333331" y1="0" x2="192.55208333333331" y2="5" style="visibility: inherit;" fill="rgb(0, 0, 0)" stroke="rgb(204, 204, 204)" stroke-width="1px"></line><line x1="224.64409722222223" y1="0" x2="224.64409722222223" y2="5" style="visibility: inherit;" fill="rgb(0, 0, 0)" stroke="rgb(204, 204, 204)" stroke-width="1px"></line><line x1="256.7361111111111" y1="0" x2="256.7361111111111" y2="5" style="visibility: inherit;" fill="rgb(0, 0, 0)" stroke="rgb(204, 204, 204)" stroke-width="1px"></line><line x1="288.828125" y1="0" x2="288.828125" y2="5" style="visibility: inherit;" fill="rgb(0, 0, 0)" stroke="rgb(204, 204, 204)" stroke-width="1px"></line></g><g transform="translate(0, 8)"><text x="0" y="0" dx="0em" dy="0.95em" style="text-anchor: middle; visibility: hidden; font-family: Roboto, sans-serif; font-size: 12px; font-weight: 200;" fill="rgb(33, 33, 33)" stroke="none" stroke-width="1px">0</text><text x="32.092013888888886" y="0" dx="0em" dy="0.95em" style="text-anchor: middle; visibility: inherit; font-family: Roboto, sans-serif; font-size: 12px; font-weight: 200;" fill="rgb(33, 33, 33)" stroke="none" stroke-width="1px">5</text><text x="64.18402777777777" y="0" dx="0em" dy="0.95em" style="text-anchor: middle; visibility: inherit; font-family: Roboto, sans-serif; font-size: 12px; font-weight: 200;" fill="rgb(33, 33, 33)" stroke="none" stroke-width="1px">10</text><text x="96.27604166666666" y="0" dx="0em" dy="0.95em" style="text-anchor: middle; visibility: inherit; font-family: Roboto, sans-serif; font-size: 12px; font-weight: 200;" fill="rgb(33, 33, 33)" stroke="none" stroke-width="1px">15</text><text x="128.36805555555554" y="0" dx="0em" dy="0.95em" style="text-anchor: middle; visibility: inherit; font-family: Roboto, sans-serif; font-size: 12px; font-weight: 200;" fill="rgb(33, 33, 33)" stroke="none" stroke-width="1px">20</text><text x="160.46006944444446" y="0" dx="0em" dy="0.95em" style="text-anchor: middle; visibility: inherit; font-family: Roboto, sans-serif; font-size: 12px; font-weight: 200;" fill="rgb(33, 33, 33)" stroke="none" stroke-width="1px">25</text><text x="192.55208333333331" y="0" dx="0em" dy="0.95em" style="text-anchor: middle; visibility: inherit; font-family: Roboto, sans-serif; font-size: 12px; font-weight: 200;" fill="rgb(33, 33, 33)" stroke="none" stroke-width="1px">30</text><text x="224.64409722222223" y="0" dx="0em" dy="0.95em" style="text-anchor: middle; visibility: inherit; font-family: Roboto, sans-serif; font-size: 12px; font-weight: 200;" fill="rgb(33, 33, 33)" stroke="none" stroke-width="1px">35</text><text x="256.7361111111111" y="0" dx="0em" dy="0.95em" style="text-anchor: middle; visibility: inherit; font-family: Roboto, sans-serif; font-size: 12px; font-weight: 200;" fill="rgb(33, 33, 33)" stroke="none" stroke-width="1px">40</text><text x="288.828125" y="0" dx="0em" dy="0.95em" style="text-anchor: middle; visibility: hidden; font-family: Roboto, sans-serif; font-size: 12px; font-weight: 200;" fill="rgb(33, 33, 33)" stroke="none" stroke-width="1px">45</text></g><line x1="0" y1="0" x2="288.828125" y2="0" fill="rgb(0, 0, 0)" stroke="rgb(204, 204, 204)" stroke-width="1px"></line></g></g></g></g></svg>