<svg viewBox="0 0 330 200" xmlns="http://www.w3.org/2000/svg"><g><g><g><g><g><line x1="51.5625" y1="177" x2="46.5625" y2="177" style="visibility: inherit;" fill="rgb(0, 0, 0)" stroke="rgb(204, 204, 204)" stroke-width="1px"></line><line x1="51.5625" y1="151.71428571428572" x2="46.5625" y2="151.71428571428572" style="visibility: inherit;" fill="rgb(0, 0, 0)" stroke="rgb(204, 204, 204)" stroke-width="1px"></line><line x1="51.5625" y1="126.42857142857142" x2="46.5625" y2="126.42857142857142" style="visibility: inherit;" fill="rgb(0, 0, 0)" stroke="rgb(204, 204, 204)" stroke-width="1px"></line><line x1="51.5625" y1="101.14285714285714" x2="46.5625" y2="101.14285714285714" style="visibility: inherit;" fill="rgb(0, 0, 0)" stroke="rgb(204, 204, 204)" stroke-width="1px"></line><line x1="51.5625" y1="75.85714285714286" x2="46.5625" y2="75.85714285714286" style="visibility: inherit;" fill="rgb(0, 0, 0)" stroke="rgb(204, 204, 204)" stroke-width="1px"></line><line x1="51.5625" y1="50.57142857142855" x2="46.5625" y2="50.57142857142855" style="visibility: inherit;" fill="rgb(0, 0, 0)" stroke="rgb(204, 204, 204)" stroke-width="1px"></line><line x1="51.5625" y1="25.285714285714313" x2="46.5625" y2="25.285714285714313" style="visibility: inherit;" fill="rgb(0, 0, 0)" stroke="rgb(204, 204, 204)" stroke-width="1px"></line><line x1="51.5625" y1="0" x2="46.5625" y2="0" style="visibility: inherit;" fill="rgb(0, 0, 0)" stroke="rgb(204, 204, 204)" stroke-width="1px"></line></g><g transform="translate(41.5625, 0)"><text x="0" y="177" dx="0em" dy="0.3em" style="text-anchor: end; visibility: hidden; font-family: Roboto, sans-serif; font-size: 12px; font-weight: 200;" fill="rgb(33, 33, 33)" stroke="none" stroke-width="1px">0.3</text><text x="0" y="151.71428571428572" dx="0em" dy="0.3em" style="text-anchor: end; visibility: inherit; font-family: Roboto, sans-serif; font-size: 12px; font-weight: 200;" fill="rgb(33, 33, 33)" stroke="none" stroke-width="1px">0.35</text><text x="0" y="126.42857142857142" dx="0em" dy="0.3em" style="text-anchor: end; visibility: inherit; font-family: Roboto, sans-serif; font-size: 12px; font-weight: 200;" fill="rgb(33, 33, 33)" stroke="none" stroke-width="1px">0.4</text><text x="0" y="101.14285714285714" dx="0em" dy="0.3em" style="text-anchor: end; visibility: inherit; font-family: Roboto, sans-serif; font-size: 12px; font-weight: 200;" fill="rgb(33, 33, 33)" stroke="none" stroke-width="1px">0.45</text><text x="0" y="75.85714285714286" dx="0em" dy="0.3em" style="text-anchor: end; visibility: inherit; font-family: Roboto, sans-serif; font-size: 12px; font-weight: 200;" fill="rgb(33, 33, 33)" stroke="none" stroke-width="1px">0.5</text><text x="0" y="50.57142857142855" dx="0em" dy="0.3em" style="text-anchor: end; visibility: inherit; font-family: Roboto, sans-serif; font-size: 12px; font-weight: 200;" fill="rgb(33, 33, 33)" stroke="none" stroke-width="1px">0.55</text><text x="0" y="25.285714285714313" dx="0em" dy="0.3em" style="text-anchor: end; visibility: inherit; font-family: Roboto, sans-serif; font-size: 12px; font-weight: 200;" fill="rgb(33, 33, 33)" stroke="none" stroke-width="1px">0.6</text><text x="0" y="0" dx="0em" dy="0.3em" style="text-anchor: end; visibility: hidden; font-family: Roboto, sans-serif; font-size: 12px; font-weight: 200;" fill="rgb(33, 33, 33)" stroke="none" stroke-width="1px">0.65</text></g><line x1="51.5625" y1="0" x2="51.5625" y2="177" fill="rgb(0, 0, 0)" stroke="rgb(204, 204, 204)" stroke-width="1px"></line></g></g><g transform="translate(51, 0)" clip-path="url(#clip_0)"><clipPath id="clip_0"><rect width="278" height="177"></rect></clipPath><g><g><g><line x1="0" y1="0" x2="0" y2="177" fill="rgb(0, 0, 0)" stroke="rgb(66, 66, 66)" stroke-width="1px" opacity="0.25"></line><line x1="30.9375" y1="0" x2="30.9375" y2="177" fill="rgb(0, 0, 0)" stroke="rgb(66, 66, 66)" stroke-width="1px" opacity="0.25"></line><line x1="61.875" y1="0" x2="61.875" y2="177" fill="rgb(0, 0, 0)" stroke="rgb(66, 66, 66)" stroke-width="1px" opacity="0.25"></line><line x1="92.8125" y1="0" x2="92.8125" y2="177" fill="rgb(0, 0, 0)" stroke="rgb(66, 66, 66)" stroke-width="1px" opacity="0.25"></line><line x1="123.75" y1="0" x2="123.75" y2="177" fill="rgb(0, 0, 0)" stroke="rgb(66, 66, 66)" stroke-width="1px" opacity="0.25"></line><line x1="154.6875" y1="0" x2="154.6875" y2="177" fill="rgb(0, 0, 0)" stroke="rgb(66, 66, 66)" stroke-width="1px" opacity="0.25"></line><line x1="185.625" y1="0" x2="185.625" y2="177" fill="rgb(0, 0, 0)" stroke="rgb(66, 66, 66)" stroke-width="1px" opacity="0.25"></line><line x1="216.5625" y1="0" x2="216.5625" y2="177" fill="rgb(0, 0, 0)" stroke="rgb(66, 66, 66)" stroke-width="1px" opacity="0.25"></line><line x1="247.5" y1="0" x2="247.5" y2="177" fill="rgb(0, 0, 0)" stroke="rgb(66, 66, 66)" stroke-width="1px" opacity="0.25"></line><line x1="278.4375" y1="0" x2="278.4375" y2="177" fill="rgb(0, 0, 0)" stroke="rgb(66, 66, 66)" stroke-width="1px" opacity="0.25"></line></g><g><line x1="0" y1="177" x2="278.4375" y2="177" fill="rgb(0, 0, 0)" stroke="rgb(66, 66, 66)" stroke-width="1px" opacity="0.25"></line><line x1="0" y1="151.71428571428572" x2="278.4375" y2="151.71428571428572" fill="rgb(0, 0, 0)" stroke="rgb(66, 66, 66)" stroke-width="1px" opacity="0.25"></line><line x1="0" y1="126.42857142857142" x2="278.4375" y2="126.42857142857142" fill="rgb(0, 0, 0)" stroke="rgb(66, 66, 66)" stroke-width="1px" opacity="0.25"></line><line x1="0" y1="101.14285714285714" x2="278.4375" y2="101.14285714285714" fill="rgb(0, 0, 0)" stroke="rgb(66, 66, 66)" stroke-width="1px" opacity="0.25"></line><line x1="0" y1="75.85714285714286" x2="278.4375" y2="75.85714285714286" fill="rgb(0, 0, 0)" stroke="rgb(66, 66, 66)" stroke-width="1px" opacity="0.25"></line><line x1="0" y1="50.57142857142855" x2="278.4375" y2="50.57142857142855" fill="rgb(0, 0, 0)" stroke="rgb(66, 66, 66)" stroke-width="1px" opacity="0.25"></line><line x1="0" y1="25.285714285714313" x2="278.4375" y2="25.285714285714313" fill="rgb(0, 0, 0)" stroke="rgb(66, 66, 66)" stroke-width="1px" opacity="0.25"></line><line x1="0" y1="0" x2="278.4375" y2="0" fill="rgb(0, 0, 0)" stroke="rgb(66, 66, 66)" stroke-width="1px" opacity="0.25"></line></g></g></g><g><g><line x1="0" y1="328.71428571428567" x2="278.4375" y2="328.71428571428567" fill="rgb(0, 0, 0)" stroke="rgb(153, 153, 153)" stroke-width="1.5px"></line></g></g><g><g><line x1="0" y1="0" x2="0" y2="177" fill="rgb(0, 0, 0)" stroke="rgb(153, 153, 153)" stroke-width="1.5px"></line></g></g><g><g><g><g><g><path stroke="rgb(51, 187, 238)" stroke-width="2px" d="M6.1875,20.355013745171693L12.375,23.03778402113036L18.5625,9.412915646325933L24.75,3.4168659632997076L30.9375,8.109986544002245L37.125,19.96574449578981L43.3125,27.551438648900845L49.5,31.92085756630866L55.6875,41.9836016156876L61.875,35.568041284248565L68.0625,44.866530972558785L74.25,55.45767471523507L80.43749999999999,60.163400239592285L86.625,61.58585129590106L92.8125,61.330035427060096L99,72.02474002460313L105.1875,72.71435942721257L111.375,72.10707975304217L117.5625,75.19147881607815L123.75,83.14118522283768L129.9375,82.54688108066837L136.125,81.21966173135395L142.3125,82.55007430240775L148.5,83.8720559331811L154.6875,90.42279645018262L160.87499999999997,91.92445470230497L167.0625,92.3421039604564L173.25,95.67309601943684L179.4375,98.33538027979752L185.625,102.93291921981323L191.8125,107.57463987605412L198,107.51038758017425L204.18749999999997,105.05308491525155L210.375,106.31923074845282L216.5625,115.27926658232943" style="fill: none;" fill="none"></path></g><g><path stroke="rgb(204, 51, 17)" stroke-width="2px" d="M6.1875,49.96458527020046L12.375,28.181251127490277L18.5625,16.626736241545707L24.75,14.468066924919704L30.9375,10.528181010024994L37.125,28.07286828593298L43.3125,33.36372703401638L49.5,43.42521606868907L55.6875,51.104724432266934L61.875,48.56887708008127L68.0625,56.90175530906783L74.25,63.34330653991189L80.43749999999999,67.4995817166151L86.625,72.65537772549521L92.8125,73.7726085279638L99,77.63124799463546L105.1875,80.3284347019966L111.375,84.37244860131081L117.5625,84.58435642069608L123.75,93.92147028462976L129.9375,92.93043700310064L136.125,89.31594151699112L142.3125,95.71044123127588L148.5,97.71735877200155L154.6875,103.50963378536616L160.87499999999997,103.18879256366935L167.0625,107.79967220222787L173.25,108.72832328889861L179.4375,109.29298880015193L185.625,117.78589025361133L191.8125,122.84577097489753L198,117.68220062240842L204.18749999999997,117.79796600768675L210.375,123.67657008457832L216.5625,125.84582124996135L222.75,124.20210721303071L228.9375,126.59097197614155L235.125,131.39047953936694" style="fill: none;" fill="none"></path></g><g><path stroke="rgb(0, 119, 187)" stroke-width="2px" d="M6.1875,60.255860567092896L12.375,30.07355547454938L18.5625,15.490093373693792L24.75,5.920367947716821L30.9375,13.420224959270925L37.125,27.960189805090835L43.3125,33.004475180716184L49.5,45.129044687801446L55.6875,52.48403958452324L61.875,49.78274842521364L68.0625,57.7337836772713L74.25,66.04118878286447L80.43749999999999,71.1173172912228L86.625,73.1569092630067L92.8125,78.75257946756587L99,83.40008951278384L105.1875,85.91157807268458L111.375,90.47127745865215L117.5625,87.69444404387058L123.75,95.71587048315412L129.9375,98.39253104119013L136.125,96.40208981804582L142.3125,95.81910622230555L148.5,97.97023594338215L154.6875,103.76250436211028L160.87499999999997,108.78578350654352L167.0625,111.76520692539164L173.25,113.40392299450703L179.4375,113.8648140399528L185.625,117.70786856069273" style="fill: none;" fill="none"></path></g><g><path stroke="rgb(255, 112, 67)" stroke-width="2px" d="M6.1875,64.66061537606376L12.375,30.392874337676815L18.5625,14.053279300663126L24.75,5.240480865289146L30.9375,11.921597465670146L37.125,31.307866965239505L43.3125,38.75227251734937L49.5,47.17099163181461L55.6875,55.15228090181295L61.875,53.25251442705189L68.0625,61.885313713145926L74.25,68.28036820174317L80.43749999999999,75.37568441704019L86.625,77.744012273478L92.8125,81.3415076293805L99,90.37909807200258L105.1875,93.56049939486125L111.375,94.75170267874802L117.5625,96.24524745340355L123.75,102.23283589176961L129.9375,107.44078986095752L136.125,103.95510961188747L142.3125,105.60344008217307L148.5,108.64489191135094L154.6875,115.23793229990333L160.87499999999997,117.5276196208088L167.0625,122.36443411863345L173.25,125.17718072094293L179.4375,126.35667031612618L185.625,131.27934442057432L191.8125,146.9901277949298L198,152.20087853008386L204.18749999999997,156.91874411845467L210.375,156.71922919279044L216.5625,160.58650121678107L222.75,167.62242254389966L228.9375,171.0714227607972L235.125,175.42598209972473L241.3125,177.70920049360154" style="fill: none;" fill="none"></path></g></g></g></g><g opacity="0.2"><g><g><g><path stroke="rgb(51, 187, 238)" stroke-width="2px" d="M6.1875,20.355013745171693L12.375,23.566289765494222L18.5625,6.2000490597316285L24.75,1.9571014472416581L30.9375,9.259615761893148L37.125,22.873454741069253L43.3125,29.412328311375223L49.5,32.99279482024058L55.6875,44.452289138521465L61.875,33.994112491607666L68.0625,47.14772936276027L74.25,58.05600009645735L80.43749999999999,61.31785593714034L86.625,61.934821231024614L92.8125,61.26727611677989L99,74.64847203663417L105.1875,72.8835437638419L111.375,71.95809582301548L117.5625,75.94817447662354L123.75,85.09148679460799L129.9375,82.40108043806893L136.125,80.89405499185835L142.3125,82.87646443503243L148.5,84.19637770312173L154.6875,92.02988970279694L160.87499999999997,92.29285653999874L167.0625,92.44456585815975L173.25,96.49028834274837L179.4375,98.988518510546L185.625,104.06083350522178L191.8125,108.71339326245445L198,107.49462456362588L204.18749999999997,104.45023482186454L210.375,106.6298543214798L216.5625,117.47743228503636" style="fill: none;" fill="none"></path></g><g><path stroke="rgb(204, 51, 17)" stroke-width="2px" d="M6.1875,49.96458527020046L12.375,23.889934301376343L18.5625,13.902077640805928L24.75,13.942529439926167L30.9375,9.563064541135518L37.125,32.375829526356306L43.3125,34.66165760585242L49.5,45.89357287543162L55.6875,52.98873404094151L61.875,47.94675789560591L68.0625,58.946060248783674L74.25,64.92361235618591L80.43749999999999,68.51924075399127L86.625,73.9202492237091L92.8125,74.04669877461025L99,78.57788806302207L105.1875,80.99013555049896L111.375,85.36456658158984L117.5625,84.63634376866477L123.75,96.2121445451464L129.9375,92.68730679580145L136.125,88.42919729437148L142.3125,97.27920392581395L148.5,98.20971587726048L154.6875,104.9306526865278L160.87499999999997,103.11008058275496L167.0625,108.93085936137608L173.25,108.95614927155631L179.4375,109.43151819705963L185.625,119.86945387295314L191.8125,124.0871115752629L198,116.41542184352875L204.18749999999997,117.82636673109872L210.375,125.11876809597015L216.5625,126.37800366537911L222.75,123.79885482788086L228.9375,127.17703219822475L235.125,132.56794278962272" style="fill: none;" fill="none"></path></g><g><path stroke="rgb(0, 119, 187)" stroke-width="2px" d="M6.1875,60.255860567092896L12.375,24.127641371318276L18.5625,12.051181759153096L24.75,3.5905764443533927L30.9375,15.25739376885551L37.125,31.52622117315021L43.3125,34.24191743986949L49.5,48.10353122438704L55.6875,54.28843648093089L61.875,49.12004092761448L68.0625,59.684411082948955L74.25,68.07924454552787L80.43749999999999,72.36264395713806L86.625,73.6572823865073L92.8125,80.12536530835288L99,84.54026321002415L105.1875,86.52772159235818L111.375,91.58990856579372L117.5625,87.01320346764156L123.75,97.6837671313967L129.9375,99.04919620922634L136.125,95.91377484798431L142.3125,95.67608284950256L148.5,98.4979726246425L154.6875,105.18352164540971L160.87499999999997,110.01814464160374L167.0625,112.49614890984127L173.25,113.8059492281505L179.4375,113.97788444587162L185.625,118.65068517412459" style="fill: none;" fill="none"></path></g><g><path stroke="rgb(255, 112, 67)" stroke-width="2px" d="M6.1875,64.66061537606376L12.375,23.64212935311454L18.5625,10.200255734579915L24.75,3.0949665478297725L30.9375,13.558207205363688L37.125,36.062489543642336L43.3125,40.57850187165397L49.5,49.23633231435504L55.6875,57.11032625607082L61.875,52.786444902420044L68.0625,64.00319828305926L74.25,69.84926697186062L80.43749999999999,77.11637842655182L86.625,78.32503417560032L92.8125,82.2240812097277L99,92.59629024778093L105.1875,94.3409926210131L111.375,95.04394059521812L117.5625,96.61165881156921L123.75,103.70177103791917L129.9375,108.71845727307456L136.125,103.0999676329749L142.3125,106.0078250169754L148.5,109.39105132647923L154.6875,116.85540298053196L160.87499999999997,118.0893486397607L167.0625,123.55104987961906L173.25,125.86723187991551L179.4375,126.64603451320103L185.625,132.4870241199221L191.8125,150.84445447581155L198,153.4792320728302L204.18749999999997,158.07617814200265L210.375,156.6702821935926L216.5625,161.53525911058696L222.75,169.34854521070207L228.9375,171.91756602696012L235.125,176.49428619657243L241.3125,178.26934249060494" style="fill: none;" fill="none"></path></g></g></g></g></g></g><g transform="translate(51, 177)" clip-path="url(#clip_1)"><clipPath id="clip_1"><rect width="278" height="23"></rect></clipPath><g><g><line x1="0" y1="0" x2="0" y2="5" style="visibility: inherit;" fill="rgb(0, 0, 0)" stroke="rgb(204, 204, 204)" stroke-width="1px"></line><line x1="30.9375" y1="0" x2="30.9375" y2="5" style="visibility: inherit;" fill="rgb(0, 0, 0)" stroke="rgb(204, 204, 204)" stroke-width="1px"></line><line x1="61.875" y1="0" x2="61.875" y2="5" style="visibility: inherit;" fill="rgb(0, 0, 0)" stroke="rgb(204, 204, 204)" stroke-width="1px"></line><line x1="92.8125" y1="0" x2="92.8125" y2="5" style="visibility: inherit;" fill="rgb(0, 0, 0)" stroke="rgb(204, 204, 204)" stroke-width="1px"></line><line x1="123.75" y1="0" x2="123.75" y2="5" style="visibility: inherit;" fill="rgb(0, 0, 0)" stroke="rgb(204, 204, 204)" stroke-width="1px"></line><line x1="154.6875" y1="0" x2="154.6875" y2="5" style="visibility: inherit;" fill="rgb(0, 0, 0)" stroke="rgb(204, 204, 204)" stroke-width="1px"></line><line x1="185.625" y1="0" x2="185.625" y2="5" style="visibility: inherit;" fill="rgb(0, 0, 0)" stroke="rgb(204, 204, 204)" stroke-width="1px"></line><line x1="216.5625" y1="0" x2="216.5625" y2="5" style="visibility: inherit;" fill="rgb(0, 0, 0)" stroke="rgb(204, 204, 204)" stroke-width="1px"></line><line x1="247.5" y1="0" x2="247.5" y2="5" style="visibility: inherit;" fill="rgb(0, 0, 0)" stroke="rgb(204, 204, 204)" stroke-width="1px"></line><line x1="278.4375" y1="0" x2="278.4375" y2="5" style="visibility: inherit;" fill="rgb(0, 0, 0)" stroke="rgb(204, 204, 204)" stroke-width="1px"></line></g><g transform="translate(0, 8)"><text x="0" y="0" dx="0em" dy="0.95em" style="text-anchor: middle; visibility: hidden; font-family: Roboto, sans-serif; font-size: 12px; font-weight: 200;" fill="rgb(33, 33, 33)" stroke="none" stroke-width="1px">0</text><text x="30.9375" y="0" dx="0em" dy="0.95em" style="text-anchor: middle; visibility: inherit; font-family: Roboto, sans-serif; font-size: 12px; font-weight: 200;" fill="rgb(33, 33, 33)" stroke="none" stroke-width="1px">5</text><text x="61.875" y="0" dx="0em" dy="0.95em" style="text-anchor: middle; visibility: inherit; font-family: Roboto, sans-serif; font-size: 12px; font-weight: 200;" fill="rgb(33, 33, 33)" stroke="none" stroke-width="1px">10</text><text x="92.8125" y="0" dx="0em" dy="0.95em" style="text-anchor: middle; visibility: inherit; font-family: Roboto, sans-serif; font-size: 12px; font-weight: 200;" fill="rgb(33, 33, 33)" stroke="none" stroke-width="1px">15</text><text x="123.75" y="0" dx="0em" dy="0.95em" style="text-anchor: middle; visibility: inherit; font-family: Roboto, sans-serif; font-size: 12px; font-weight: 200;" fill="rgb(33, 33, 33)" stroke="none" stroke-width="1px">20</text><text x="154.6875" y="0" dx="0em" dy="0.95em" style="text-anchor: middle; visibility: inherit; font-family: Roboto, sans-serif; font-size: 12px; font-weight: 200;" fill="rgb(33, 33, 33)" stroke="none" stroke-width="1px">25</text><text x="185.625" y="0" dx="0em" dy="0.95em" style="text-anchor: middle; visibility: inherit; font-family: Roboto, sans-serif; font-size: 12px; font-weight: 200;" fill="rgb(33, 33, 33)" stroke="none" stroke-width="1px">30</text><text x="216.5625" y="0" dx="0em" dy="0.95em" style="text-anchor: middle; visibility: inherit; font-family: Roboto, sans-serif; font-size: 12px; font-weight: 200;" fill="rgb(33, 33, 33)" stroke="none" stroke-width="1px">35</text><text x="247.5" y="0" dx="0em" dy="0.95em" style="text-anchor: middle; visibility: inherit; font-family: Roboto, sans-serif; font-size: 12px; font-weight: 200;" fill="rgb(33, 33, 33)" stroke="none" stroke-width="1px">40</text><text x="278.4375" y="0" dx="0em" dy="0.95em" style="text-anchor: middle; visibility: hidden; font-family: Roboto, sans-serif; font-size: 12px; font-weight: 200;" fill="rgb(33, 33, 33)" stroke="none" stroke-width="1px">45</text></g><line x1="0" y1="0" x2="278.4375" y2="0" fill="rgb(0, 0, 0)" stroke="rgb(204, 204, 204)" stroke-width="1px"></line></g></g></g></g></svg>